<mxfile host="Electron" agent="Mozilla/5.0 (X11; Linux x86_64) AppleWebKit/537.36 (KHTML, like Gecko) draw.io/26.1.1 Chrome/132.0.6834.210 Electron/34.3.3 Safari/537.36" version="26.1.1">
  <diagram name="Page-1" id="alRttfE3OEhxZv2fBE-p">
    <mxGraphModel dx="683" dy="399" grid="1" gridSize="10" guides="1" tooltips="1" connect="1" arrows="1" fold="1" page="1" pageScale="1" pageWidth="827" pageHeight="1169" math="0" shadow="0">
      <root>
        <mxCell id="0" />
        <mxCell id="1" parent="0" />
        <mxCell id="-upZdm-Q2YhtHuhgS55k-1" value="&lt;span&gt;&lt;b&gt;&lt;i&gt;Глобальная карта&lt;/i&gt;&lt;/b&gt;&lt;/span&gt;" style="text;html=1;align=center;verticalAlign=middle;whiteSpace=wrap;rounded=0;" vertex="1" parent="1">
          <mxGeometry width="80" height="40" as="geometry" />
        </mxCell>
        <mxCell id="-upZdm-Q2YhtHuhgS55k-2" value="Спавн" style="rounded=1;whiteSpace=wrap;html=1;fillColor=#FF3333;strokeColor=#000000;gradientColor=default;gradientDirection=south;shadow=1;" vertex="1" parent="1">
          <mxGeometry x="10" y="80" width="40" height="40" as="geometry" />
        </mxCell>
        <mxCell id="-upZdm-Q2YhtHuhgS55k-5" value="" style="rounded=1;whiteSpace=wrap;html=1;fillColor=#a0522d;fontColor=#ffffff;strokeColor=#6D1F00;gradientColor=#FFB570;shadow=1;" vertex="1" parent="1">
          <mxGeometry x="240" y="40" width="120" height="40" as="geometry" />
        </mxCell>
        <mxCell id="-upZdm-Q2YhtHuhgS55k-6" value="Дом &quot;Туристов&quot;" style="text;html=1;align=left;verticalAlign=middle;whiteSpace=wrap;rounded=0;textShadow=1;" vertex="1" parent="1">
          <mxGeometry x="240" y="40" width="90" height="30" as="geometry" />
        </mxCell>
        <mxCell id="-upZdm-Q2YhtHuhgS55k-7" value="" style="endArrow=none;html=1;rounded=0;" edge="1" parent="1">
          <mxGeometry width="50" height="50" relative="1" as="geometry">
            <mxPoint x="140" y="130" as="sourcePoint" />
            <mxPoint x="140" y="70" as="targetPoint" />
          </mxGeometry>
        </mxCell>
        <mxCell id="-upZdm-Q2YhtHuhgS55k-8" value="" style="curved=1;endArrow=classic;html=1;rounded=0;entryX=0.5;entryY=0;entryDx=0;entryDy=0;" edge="1" parent="1" target="-upZdm-Q2YhtHuhgS55k-9">
          <mxGeometry width="50" height="50" relative="1" as="geometry">
            <mxPoint x="140" y="130" as="sourcePoint" />
            <mxPoint x="160" y="140" as="targetPoint" />
            <Array as="points">
              <mxPoint x="160" y="110" />
              <mxPoint x="220" y="120" />
            </Array>
          </mxGeometry>
        </mxCell>
        <mxCell id="-upZdm-Q2YhtHuhgS55k-9" value="" style="ellipse;whiteSpace=wrap;html=1;aspect=fixed;direction=south;" vertex="1" parent="1">
          <mxGeometry x="170" y="130" width="10" height="10" as="geometry" />
        </mxCell>
        <mxCell id="-upZdm-Q2YhtHuhgS55k-10" value="" style="curved=1;endArrow=classic;html=1;rounded=0;entryX=0;entryY=0.75;entryDx=0;entryDy=0;" edge="1" parent="1" target="-upZdm-Q2YhtHuhgS55k-6">
          <mxGeometry width="50" height="50" relative="1" as="geometry">
            <mxPoint x="140" y="70" as="sourcePoint" />
            <mxPoint x="240" y="70" as="targetPoint" />
            <Array as="points">
              <mxPoint x="170" y="30" />
              <mxPoint x="160" y="90" />
            </Array>
          </mxGeometry>
        </mxCell>
        <mxCell id="-upZdm-Q2YhtHuhgS55k-12" value="" style="endArrow=classic;html=1;rounded=0;" edge="1" parent="1">
          <mxGeometry width="50" height="50" relative="1" as="geometry">
            <mxPoint x="80" y="100" as="sourcePoint" />
            <mxPoint x="150" y="60" as="targetPoint" />
            <Array as="points">
              <mxPoint x="100" y="40" />
            </Array>
          </mxGeometry>
        </mxCell>
        <mxCell id="-upZdm-Q2YhtHuhgS55k-13" value="" style="endArrow=none;html=1;rounded=0;exitX=1;exitY=0.5;exitDx=0;exitDy=0;" edge="1" parent="1" source="-upZdm-Q2YhtHuhgS55k-2">
          <mxGeometry width="50" height="50" relative="1" as="geometry">
            <mxPoint x="150" y="160" as="sourcePoint" />
            <mxPoint x="80" y="100" as="targetPoint" />
          </mxGeometry>
        </mxCell>
        <mxCell id="-upZdm-Q2YhtHuhgS55k-14" value="" style="endArrow=classic;html=1;rounded=0;" edge="1" parent="1">
          <mxGeometry width="50" height="50" relative="1" as="geometry">
            <mxPoint x="80" y="100" as="sourcePoint" />
            <mxPoint x="140" y="80" as="targetPoint" />
          </mxGeometry>
        </mxCell>
        <mxCell id="-upZdm-Q2YhtHuhgS55k-15" value="" style="curved=1;endArrow=classic;html=1;rounded=0;" edge="1" parent="1">
          <mxGeometry width="50" height="50" relative="1" as="geometry">
            <mxPoint x="80" y="100" as="sourcePoint" />
            <mxPoint x="220" y="70" as="targetPoint" />
            <Array as="points">
              <mxPoint x="100" y="130" />
              <mxPoint x="150" y="140" />
              <mxPoint x="100" y="170" />
              <mxPoint x="230" y="160" />
              <mxPoint x="220" y="90" />
            </Array>
          </mxGeometry>
        </mxCell>
        <mxCell id="-upZdm-Q2YhtHuhgS55k-16" value="" style="endArrow=classic;html=1;rounded=0;exitX=0.5;exitY=0;exitDx=0;exitDy=0;" edge="1" parent="1" source="-upZdm-Q2YhtHuhgS55k-9">
          <mxGeometry width="50" height="50" relative="1" as="geometry">
            <mxPoint x="190" y="150" as="sourcePoint" />
            <mxPoint x="220" y="100" as="targetPoint" />
            <Array as="points">
              <mxPoint x="200" y="140" />
            </Array>
          </mxGeometry>
        </mxCell>
        <mxCell id="-upZdm-Q2YhtHuhgS55k-17" value="" style="ellipse;whiteSpace=wrap;html=1;aspect=fixed;" vertex="1" parent="1">
          <mxGeometry x="220" y="95" width="10" height="10" as="geometry" />
        </mxCell>
        <mxCell id="-upZdm-Q2YhtHuhgS55k-22" value="" style="endArrow=none;dashed=1;html=1;rounded=0;entryX=0;entryY=0;entryDx=55;entryDy=0;entryPerimeter=0;" edge="1" parent="1" target="-upZdm-Q2YhtHuhgS55k-24">
          <mxGeometry width="50" height="50" relative="1" as="geometry">
            <mxPoint x="80" y="100" as="sourcePoint" />
            <mxPoint x="40" y="160" as="targetPoint" />
          </mxGeometry>
        </mxCell>
        <mxCell id="-upZdm-Q2YhtHuhgS55k-24" value="Игроку доступно 4 способа добраться до точки назначения и если он выбирает самые длинные пути, то он получает награды" style="shape=note;whiteSpace=wrap;html=1;backgroundOutline=1;darkOpacity=0.05;align=left;fillColor=#d5e8d4;gradientColor=#97d077;strokeColor=#82b366;textShadow=1;labelBorderColor=none;labelBackgroundColor=none;" vertex="1" parent="1">
          <mxGeometry y="170" width="140" height="110" as="geometry" />
        </mxCell>
        <mxCell id="-upZdm-Q2YhtHuhgS55k-26" value="" style="rounded=1;whiteSpace=wrap;html=1;fillColor=#FF6666;fillStyle=dashed;gradientColor=#FF3333;gradientDirection=south;strokeColor=default;glass=0;shadow=1;" vertex="1" parent="1">
          <mxGeometry x="560" y="120" width="120" height="80" as="geometry" />
        </mxCell>
        <mxCell id="-upZdm-Q2YhtHuhgS55k-27" value="Больница" style="text;html=1;align=center;verticalAlign=middle;whiteSpace=wrap;rounded=0;textShadow=1;" vertex="1" parent="1">
          <mxGeometry x="560" y="120" width="60" height="30" as="geometry" />
        </mxCell>
        <mxCell id="-upZdm-Q2YhtHuhgS55k-28" value="" style="endArrow=classic;html=1;rounded=0;" edge="1" parent="1">
          <mxGeometry width="50" height="50" relative="1" as="geometry">
            <mxPoint x="360" y="60" as="sourcePoint" />
            <mxPoint x="430" y="60" as="targetPoint" />
          </mxGeometry>
        </mxCell>
        <mxCell id="-upZdm-Q2YhtHuhgS55k-31" value="" style="endArrow=classic;html=1;rounded=0;entryX=1;entryY=0.5;entryDx=0;entryDy=0;" edge="1" parent="1" target="-upZdm-Q2YhtHuhgS55k-32">
          <mxGeometry width="50" height="50" relative="1" as="geometry">
            <mxPoint x="434" y="70" as="sourcePoint" />
            <mxPoint x="424" y="50" as="targetPoint" />
            <Array as="points">
              <mxPoint x="444" y="60" />
            </Array>
          </mxGeometry>
        </mxCell>
        <mxCell id="-upZdm-Q2YhtHuhgS55k-32" value="" style="ellipse;whiteSpace=wrap;html=1;aspect=fixed;" vertex="1" parent="1">
          <mxGeometry x="414" y="40" width="10" height="10" as="geometry" />
        </mxCell>
        <mxCell id="-upZdm-Q2YhtHuhgS55k-34" value="" style="endArrow=classic;html=1;rounded=0;" edge="1" parent="1">
          <mxGeometry width="50" height="50" relative="1" as="geometry">
            <mxPoint x="430" y="60" as="sourcePoint" />
            <mxPoint x="450" y="100" as="targetPoint" />
          </mxGeometry>
        </mxCell>
        <mxCell id="-upZdm-Q2YhtHuhgS55k-35" value="" style="endArrow=classic;html=1;rounded=0;entryX=0;entryY=0.25;entryDx=0;entryDy=0;" edge="1" parent="1" target="-upZdm-Q2YhtHuhgS55k-26">
          <mxGeometry width="50" height="50" relative="1" as="geometry">
            <mxPoint x="480" y="120" as="sourcePoint" />
            <mxPoint x="480" y="70" as="targetPoint" />
          </mxGeometry>
        </mxCell>
        <mxCell id="-upZdm-Q2YhtHuhgS55k-36" value="" style="curved=1;endArrow=classic;html=1;rounded=0;" edge="1" parent="1">
          <mxGeometry width="50" height="50" relative="1" as="geometry">
            <mxPoint x="450" y="100" as="sourcePoint" />
            <mxPoint x="480" y="120" as="targetPoint" />
            <Array as="points">
              <mxPoint x="440" y="120" />
              <mxPoint x="450" y="130" />
              <mxPoint x="460" y="120" />
            </Array>
          </mxGeometry>
        </mxCell>
        <mxCell id="-upZdm-Q2YhtHuhgS55k-37" value="" style="endArrow=none;dashed=1;html=1;dashPattern=1 3;strokeWidth=2;rounded=0;" edge="1" parent="1">
          <mxGeometry width="50" height="50" relative="1" as="geometry">
            <mxPoint x="450" y="100" as="sourcePoint" />
            <mxPoint x="480" y="120" as="targetPoint" />
          </mxGeometry>
        </mxCell>
        <mxCell id="-upZdm-Q2YhtHuhgS55k-38" value="" style="endArrow=none;dashed=1;html=1;rounded=0;entryX=0;entryY=0;entryDx=50;entryDy=0;entryPerimeter=0;" edge="1" parent="1" target="-upZdm-Q2YhtHuhgS55k-40">
          <mxGeometry width="50" height="50" relative="1" as="geometry">
            <mxPoint x="430" y="60" as="sourcePoint" />
            <mxPoint x="390" y="110" as="targetPoint" />
          </mxGeometry>
        </mxCell>
        <mxCell id="-upZdm-Q2YhtHuhgS55k-39" value="" style="endArrow=none;dashed=1;html=1;rounded=0;" edge="1" parent="1">
          <mxGeometry width="50" height="50" relative="1" as="geometry">
            <mxPoint x="450" y="100" as="sourcePoint" />
            <mxPoint x="500" y="70" as="targetPoint" />
          </mxGeometry>
        </mxCell>
        <mxCell id="-upZdm-Q2YhtHuhgS55k-40" value="Игрок&lt;div&gt;имеет возможность найти секретку&lt;/div&gt;" style="shape=note;whiteSpace=wrap;html=1;backgroundOutline=1;darkOpacity=0.05;align=left;spacingBottom=20;spacingLeft=2;fillColor=#d5e8d4;gradientColor=#97d077;strokeColor=#82b366;textShadow=1;" vertex="1" parent="1">
          <mxGeometry x="360" y="110" width="80" height="90" as="geometry" />
        </mxCell>
        <mxCell id="-upZdm-Q2YhtHuhgS55k-41" value="Здесь игрок&amp;nbsp;&lt;div&gt;впервые встречается с монстром и знакомится с механикой &quot;страх&quot;&lt;/div&gt;" style="shape=note;whiteSpace=wrap;html=1;backgroundOutline=1;darkOpacity=0.05;align=left;fillColor=#d5e8d4;gradientColor=#97d077;strokeColor=#82b366;textShadow=1;" vertex="1" parent="1">
          <mxGeometry x="500" y="20" width="110" height="90" as="geometry" />
        </mxCell>
        <mxCell id="-upZdm-Q2YhtHuhgS55k-42" value="Кладбище" style="rounded=1;whiteSpace=wrap;html=1;strokeWidth=1;perimeterSpacing=0;textShadow=1;align=left;spacing=2;spacingBottom=56;labelPosition=center;verticalLabelPosition=middle;verticalAlign=middle;fillColor=#CCCCCC;gradientColor=#999999;shadow=1;" vertex="1" parent="1">
          <mxGeometry x="440" y="270" width="91" height="80" as="geometry" />
        </mxCell>
        <mxCell id="-upZdm-Q2YhtHuhgS55k-43" value="" style="curved=1;endArrow=classic;html=1;rounded=0;entryX=1;entryY=0.25;entryDx=0;entryDy=0;exitX=0.75;exitY=1;exitDx=0;exitDy=0;" edge="1" parent="1" target="-upZdm-Q2YhtHuhgS55k-42">
          <mxGeometry width="50" height="50" relative="1" as="geometry">
            <mxPoint x="649.5" y="200" as="sourcePoint" />
            <mxPoint x="530.5" y="289.9999999999999" as="targetPoint" />
            <Array as="points">
              <mxPoint x="639.5" y="300" />
              <mxPoint x="609.5" y="220" />
            </Array>
          </mxGeometry>
        </mxCell>
        <mxCell id="-upZdm-Q2YhtHuhgS55k-44" value="Конец" style="rounded=1;whiteSpace=wrap;html=1;direction=east;align=right;textShadow=1;labelPosition=center;verticalLabelPosition=middle;verticalAlign=top;horizontal=0;spacing=2;spacingBottom=-1;spacingLeft=0;spacingTop=-6;gradientColor=default;fillColor=#FF3333;shadow=1;" vertex="1" parent="1">
          <mxGeometry x="360" y="270" width="40" height="60" as="geometry" />
        </mxCell>
        <mxCell id="-upZdm-Q2YhtHuhgS55k-45" value="" style="curved=1;endArrow=classic;html=1;rounded=0;entryX=1;entryY=0.75;entryDx=0;entryDy=0;exitX=0;exitY=0.75;exitDx=0;exitDy=0;" edge="1" parent="1" source="-upZdm-Q2YhtHuhgS55k-42" target="-upZdm-Q2YhtHuhgS55k-44">
          <mxGeometry width="50" height="50" relative="1" as="geometry">
            <mxPoint x="350" y="270" as="sourcePoint" />
            <mxPoint x="400" y="220" as="targetPoint" />
            <Array as="points">
              <mxPoint x="420" y="290" />
              <mxPoint x="430" y="350" />
            </Array>
          </mxGeometry>
        </mxCell>
      </root>
    </mxGraphModel>
  </diagram>
</mxfile>
